<svg xmlns="http://www.w3.org/2000/svg" viewBox="0 0 512 512"><path fill="#ffffff" d="M127.1 146.4c-4.4 0-14 3.7-21.4 8.2L28.1 206.5c-7.4 4.5-13.4 15.3-13.4 24.1v108.5c0 8.8 6 19.6 13.4 24.1l77.6 51.9c7.4 4.5 17 8.2 21.4 8.2h257.7c4.4 0 14-3.7 21.4-8.2l77.6-51.9c7.4-4.5 13.4-15.3 13.4-24.1V230.6c0-8.8-6-19.6-13.4-24.1l-77.6-51.9c-7.4-4.5-17-8.2-21.4-8.2H127.1zm-19.4 69.9c18.5 0 33.6 15 33.6 33.6 0 18.5-15 33.6-33.6 33.6-18.5 0-33.6-15-33.6-33.6 0-18.5 15-33.6 33.6-33.6zm335.7 0c18.5 0 33.6 15 33.6 33.6 0 18.5-15 33.6-33.6 33.6-18.5 0-33.6-15-33.6-33.6 0-18.5 15-33.6 33.6-33.6zM256 226.7c18.5 0 33.6 15 33.6 33.6 0 18.5-15 33.6-33.6 33.6-18.5 0-33.6-15-33.6-33.6 0-18.5 15-33.6 33.6-33.6zm-74.6 20.9c18.5 0 33.6 15 33.6 33.6 0 18.5-15 33.6-33.6 33.6-18.5 0-33.6-15-33.6-33.6 0-18.5 15-33.6 33.6-33.6zm149.2 0c18.5 0 33.6 15 33.6 33.6 0 18.5-15 33.6-33.6 33.6-18.5 0-33.6-15-33.6-33.6 0-18.5 15-33.6 33.6-33.6z"/></svg>